<svg width="20" height="20" viewBox="0 0 20 20" fill="none" xmlns="http://www.w3.org/2000/svg">
<path d="M12.1857 8.533L18.7429 0H15.8162L10.8114 6.517L6.37143 0H0L7.43429 10.91L0.447619 20H3.37524L8.80857 12.93L13.6286 20H20L12.1857 8.533ZM9.91905 11.483L8.54286 9.464L3.2 1.627H5.4L9.71238 7.944L11.0867 9.964L16.8181 18.373H14.6181L9.91905 11.483Z" fill="#D0DAF5"/>
<path d="M12.1857 8.533L18.7429 0H15.8162L10.8114 6.517L6.37143 0H0L7.43429 10.91L0.447619 20H3.37524L8.80857 12.93L13.6286 20H20L12.1857 8.533ZM9.91905 11.483L8.54286 9.464L3.2 1.627H5.4L9.71238 7.944L11.0867 9.964L16.8181 18.373H14.6181L9.91905 11.483Z" fill="#ED2B24"/>
</svg>
