<svg width="46" height="48" viewBox="0 0 46 48" fill="none" xmlns="http://www.w3.org/2000/svg">
<path fill-rule="evenodd" clip-rule="evenodd" d="M27.3071 0.3648C26.4113 -1.07288e-07 25.2734 0 23.0001 0C20.7268 0 19.5914 -1.07288e-07 18.6932 0.3648C17.5007 0.850106 16.5515 1.78504 16.0543 2.964C15.8267 3.4992 15.7396 4.1256 15.7033 5.0352C15.6871 5.69425 15.5017 6.33832 15.1645 6.90653C14.8273 7.47473 14.3494 7.94828 13.7762 8.2824C13.1921 8.60425 12.5355 8.77475 11.8673 8.7781C11.1991 8.78146 10.5408 8.61757 9.95344 8.3016C9.13515 7.8744 8.542 7.6392 7.95612 7.5624C6.67434 7.39556 5.37795 7.73712 4.34886 8.5128C3.57898 9.0936 3.01005 10.0632 1.87461 12C0.736744 13.9368 0.170233 14.904 0.0419206 15.852C-0.127548 17.1144 0.221074 18.3912 1.01032 19.4016C1.36862 19.8624 1.87461 20.2488 2.65659 20.7336C3.8114 21.4464 4.55222 22.6608 4.55222 24C4.55222 25.3392 3.8114 26.5536 2.65901 27.264C1.87461 27.7512 1.36862 28.1376 1.00789 28.5984C0.618316 29.0975 0.332365 29.6681 0.166564 30.2774C0.000762348 30.8866 -0.0416015 31.5224 0.0419206 32.148C0.170233 33.0936 0.736744 34.0632 1.87461 36C3.01247 37.9368 3.57898 38.904 4.34886 39.4872C5.37535 40.2624 6.673 40.6032 7.95612 40.4376C8.542 40.3608 9.13515 40.1256 9.95344 39.6984C10.5411 39.382 11.1998 39.2179 11.8685 39.2212C12.5372 39.2246 13.1942 39.3953 13.7786 39.7176C14.9552 40.3896 15.6524 41.6256 15.7033 42.9648C15.7396 43.8768 15.8267 44.5008 16.0543 45.036C16.5482 46.212 17.4972 47.148 18.6932 47.6352C19.589 48 20.7268 48 23.0001 48C25.2734 48 26.4113 48 27.3071 47.6352C28.4995 47.1499 29.4487 46.215 29.9459 45.036C30.1735 44.5008 30.2607 43.8768 30.297 42.9648C30.3454 41.6256 31.0451 40.3872 32.2241 39.7176C32.8082 39.3958 33.4647 39.2253 34.133 39.2219C34.8012 39.2185 35.4595 39.3824 36.0468 39.6984C36.8651 40.1256 37.4583 40.3608 38.0441 40.4376C39.3273 40.6056 40.6249 40.2624 41.6514 39.4872C42.4213 38.9064 42.9902 37.9368 44.1257 36C45.2635 34.0632 45.83 33.096 45.9583 32.148C46.0415 31.5223 45.9988 30.8864 45.8326 30.2771C45.6663 29.6678 45.38 29.0973 44.9899 28.5984C44.6316 28.1376 44.1257 27.7512 43.3437 27.2664C42.1889 26.5536 41.448 25.3392 41.448 24C41.448 22.6608 42.1889 21.4464 43.3413 20.736C44.1257 20.2488 44.6316 19.8624 44.9924 19.4016C45.3819 18.9025 45.6679 18.3319 45.8337 17.7226C45.9995 17.1134 46.0419 16.4776 45.9583 15.852C45.83 14.9064 45.2635 13.9368 44.1257 12C42.9878 10.0632 42.4213 9.096 41.6514 8.5128C40.6223 7.73712 39.3259 7.39556 38.0441 7.5624C37.4583 7.6392 36.8651 7.8744 36.0468 8.3016C35.4592 8.61799 34.8005 8.78212 34.1318 8.77876C33.4631 8.77541 32.806 8.60467 32.2217 8.2824C31.6489 7.94799 31.1715 7.47431 30.8347 6.90612C30.498 6.33794 30.3129 5.69402 30.297 5.0352C30.2607 4.1232 30.1735 3.4992 29.9459 2.964C29.6999 2.38017 29.3401 1.85012 28.8874 1.40414C28.4346 0.958159 27.8976 0.604987 27.3071 0.3648ZM23.0001 31.2C27.0432 31.2 30.3188 27.9768 30.3188 24C30.3188 20.0232 27.0408 16.8 23.0001 16.8C18.9571 16.8 15.6815 20.0232 15.6815 24C15.6815 27.9768 18.9595 31.2 23.0001 31.2Z" fill="white" fill-opacity="0.1"/>
</svg>
