<svg width="84" height="89" viewBox="0 0 84 89" fill="none" xmlns="http://www.w3.org/2000/svg">
<path fill-rule="evenodd" clip-rule="evenodd" d="M49.817 0.671333C48.1828 -1.9744e-07 46.107 0 41.9597 0C37.8125 0 35.7411 -1.9744e-07 34.1025 0.671333C31.9271 1.56443 30.1954 3.28496 29.2883 5.45458C28.8731 6.4395 28.7141 7.59225 28.6479 9.26617C28.6184 10.479 28.2801 11.6643 27.665 12.7099C27.0498 13.7556 26.1781 14.627 25.1322 15.2419C24.0667 15.8342 22.8689 16.148 21.6498 16.1542C20.4307 16.1603 19.2298 15.8587 18.1583 15.2773C16.6655 14.4911 15.5834 14.0583 14.5146 13.9169C12.1762 13.6099 9.81113 14.2384 7.93373 15.6659C6.52923 16.7348 5.49131 18.5191 3.41989 22.0833C1.34406 25.6476 0.31056 27.4275 0.0764769 29.1721C-0.23269 31.4953 0.403311 33.8449 1.84314 35.7043C2.49681 36.5523 3.41989 37.2634 4.84648 38.1556C6.95323 39.4673 8.30473 41.7022 8.30473 44.1667C8.30473 46.6312 6.95323 48.866 4.85089 50.1733C3.41989 51.0699 2.49681 51.781 1.83873 52.629C1.12801 53.5474 0.606341 54.5976 0.303866 55.7188C0.00139077 56.84 -0.0758947 58.01 0.0764769 59.1613C0.31056 60.9014 1.34406 62.6858 3.41989 66.25C5.49573 69.8143 6.52923 71.5942 7.93373 72.6674C9.80639 74.094 12.1737 74.7212 14.5146 74.4164C15.5834 74.2751 16.6655 73.8423 18.1583 73.0561C19.2304 72.4738 20.4321 72.1718 21.652 72.178C22.8719 72.1842 24.0706 72.4984 25.1366 73.0914C27.2831 74.3281 28.5551 76.6027 28.6479 79.0672C28.7141 80.7455 28.8731 81.8938 29.2883 82.8788C30.1893 85.0429 31.9206 86.7654 34.1025 87.662C35.7366 88.3333 37.8125 88.3333 41.9597 88.3333C46.107 88.3333 48.1828 88.3333 49.817 87.662C51.9924 86.7689 53.7241 85.0484 54.6311 82.8788C55.0463 81.8938 55.2053 80.7455 55.2716 79.0672C55.3599 76.6027 56.6363 74.3237 58.7872 73.0914C59.8528 72.4991 61.0506 72.1854 62.2697 72.1792C63.4887 72.173 64.6897 72.4746 65.7611 73.0561C67.254 73.8423 68.3361 74.2751 69.4049 74.4164C71.7457 74.7256 74.1131 74.094 75.9857 72.6674C77.3902 71.5986 78.4281 69.8143 80.4996 66.25C82.5754 62.6858 83.6089 60.9058 83.843 59.1613C83.9947 58.0097 83.9167 56.8395 83.6135 55.7183C83.3103 54.5971 82.7878 53.5471 82.0763 52.629C81.4226 51.781 80.4996 51.0699 79.073 50.1778C76.9662 48.866 75.6147 46.6312 75.6147 44.1667C75.6147 41.7022 76.9662 39.4673 79.0686 38.16C80.4996 37.2634 81.4226 36.5523 82.0807 35.7043C82.7914 34.7859 83.3131 33.7358 83.6156 32.6146C83.9181 31.4934 83.9954 30.3233 83.843 29.1721C83.6089 27.4319 82.5754 25.6476 80.4996 22.0833C78.4237 18.5191 77.3902 16.7392 75.9857 15.6659C74.1083 14.2384 71.7433 13.6099 69.4049 13.9169C68.3361 14.0583 67.254 14.4911 65.7611 15.2773C64.6891 15.8595 63.4874 16.1615 62.2674 16.1554C61.0475 16.1492 59.8489 15.835 58.7828 15.2419C57.7378 14.6265 56.867 13.7548 56.2526 12.7092C55.6382 11.6636 55.3006 10.4786 55.2716 9.26617C55.2053 7.58783 55.0463 6.4395 54.6311 5.45458C54.1822 4.38017 53.526 3.40473 52.6999 2.58401C51.8739 1.76328 50.8943 1.11334 49.817 0.671333ZM41.9597 57.4167C49.3356 57.4167 55.3113 51.4851 55.3113 44.1667C55.3113 36.8483 49.3311 30.9167 41.9597 30.9167C34.5839 30.9167 28.6081 36.8483 28.6081 44.1667C28.6081 51.4851 34.5883 57.4167 41.9597 57.4167Z" fill="white" fill-opacity="0.1"/>
</svg>
